<svg xmlns="http://www.w3.org/2000/svg" xmlns:xlink="http://www.w3.org/1999/xlink" width="500" zoomAndPan="magnify" viewBox="0 0 375 374.999991" height="500" preserveAspectRatio="xMidYMid meet" version="1.0"><defs><g/><clipPath id="6988d84ab0"><path d="M 24 150 L 92.492188 150 L 92.492188 211 L 24 211 Z M 24 150 " clip-rule="nonzero"/></clipPath><clipPath id="511f937e43"><path d="M 17.492188 138.070312 L 80 138.070312 L 80 216.820312 L 17.492188 216.820312 Z M 17.492188 138.070312 " clip-rule="nonzero"/></clipPath></defs><g clip-path="url(#6988d84ab0)"><path fill="#5e17eb" d="M 24.8125 190.738281 L 33 186.746094 L 33.480469 187.730469 L 25.292969 191.726562 Z M 49.414062 210.296875 L 50.203125 199.011719 L 51.296875 199.082031 L 50.507812 210.371094 Z M 47.117188 210.359375 L 48.742188 198.820312 L 49.828125 198.96875 L 48.203125 210.511719 Z M 44.792969 210.289062 L 47.296875 198.523438 L 48.367188 198.75 L 45.867188 210.519531 Z M 42.453125 210.0625 L 45.875 198.128906 L 46.929688 198.429688 L 43.507812 210.363281 Z M 40.113281 209.644531 L 44.484375 197.636719 L 45.515625 198.011719 L 41.144531 210.015625 Z M 37.8125 209 L 43.132812 197.050781 L 44.132812 197.496094 L 38.8125 209.449219 Z M 35.582031 208.105469 L 41.824219 196.367188 L 42.792969 196.882812 L 36.550781 208.621094 Z M 33.476562 206.941406 L 40.566406 195.601562 L 41.496094 196.179688 L 34.410156 207.523438 Z M 31.550781 205.496094 L 39.363281 194.742188 L 40.253906 195.386719 L 32.441406 206.140625 Z M 29.847656 203.789062 L 38.226562 193.804688 L 39.066406 194.507812 L 30.691406 204.492188 Z M 28.402344 201.859375 L 37.15625 192.792969 L 37.945312 193.550781 L 29.191406 202.617188 Z M 27.21875 199.753906 L 36.160156 191.703125 L 36.894531 192.519531 L 27.953125 200.570312 Z M 26.296875 197.539062 L 35.242188 190.550781 L 35.917969 191.414062 L 26.972656 198.402344 Z M 25.605469 195.269531 L 34.40625 189.332031 L 35.019531 190.242188 L 26.222656 196.179688 Z M 25.121094 192.992188 L 33.65625 188.0625 L 34.207031 189.011719 L 25.671875 193.941406 Z M 52.773438 199.097656 L 52.773438 210.125 L 51.671875 210.125 L 51.671875 199.097656 Z M 54.242188 199.011719 L 54.996094 209.785156 L 53.902344 209.855469 L 53.148438 199.082031 Z M 51.21875 155.765625 L 51.296875 156.875 L 50.203125 156.949219 L 50.125 155.839844 Z M 55.707031 198.816406 L 57.1875 209.363281 L 56.101562 209.511719 L 54.621094 198.96875 Z M 49.476562 154.5 L 49.828125 156.988281 L 48.742188 157.140625 L 48.390625 154.652344 Z M 57.148438 198.523438 L 59.351562 208.871094 L 58.277344 209.101562 L 56.078125 198.75 Z M 47.472656 152.996094 L 48.367188 157.207031 L 47.296875 157.433594 L 46.398438 153.222656 Z M 58.570312 198.128906 L 61.492188 208.320312 L 60.4375 208.621094 L 57.515625 198.429688 Z M 45.210938 151.53125 L 46.929688 157.527344 L 45.875 157.828125 L 44.15625 151.832031 Z M 59.960938 197.636719 L 63.628906 207.710938 L 62.597656 208.085938 L 58.929688 198.011719 Z M 42.832031 150.574219 L 45.515625 157.945312 L 44.484375 158.320312 L 41.800781 150.949219 Z M 61.3125 197.050781 L 65.765625 207.046875 L 64.765625 207.496094 L 60.3125 197.496094 Z M 40.464844 150.222656 L 44.132812 158.460938 L 43.132812 158.910156 L 39.464844 150.667969 Z M 62.621094 196.367188 L 67.917969 206.328125 L 66.945312 206.84375 L 61.652344 196.882812 Z M 38.222656 150.476562 L 42.792969 159.074219 L 41.824219 159.589844 L 37.253906 150.992188 Z M 63.878906 195.601562 L 70.097656 205.546875 L 69.164062 206.128906 L 62.949219 196.179688 Z M 36.179688 151.273438 L 41.496094 159.777344 L 40.566406 160.359375 L 35.25 151.851562 Z M 65.082031 194.742188 L 72.316406 204.703125 L 71.429688 205.347656 L 64.191406 195.386719 Z M 34.371094 152.476562 L 40.253906 160.570312 L 39.363281 161.214844 L 33.484375 153.121094 Z M 66.21875 193.804688 L 74.578125 203.769531 L 73.738281 204.472656 L 65.378906 194.507812 Z M 32.804688 153.984375 L 39.070312 161.449219 L 38.226562 162.152344 L 31.964844 154.6875 Z M 67.289062 192.789062 L 76.886719 202.726562 L 76.09375 203.488281 L 66.5 193.550781 Z M 31.453125 155.683594 L 37.945312 162.40625 L 37.15625 163.167969 L 30.664062 156.441406 Z M 68.285156 191.703125 L 79.230469 201.558594 L 78.496094 202.375 L 67.550781 192.519531 Z M 30.300781 157.503906 L 36.894531 163.441406 L 36.160156 164.253906 L 29.566406 158.316406 Z M 69.203125 190.550781 L 81.59375 200.234375 L 80.921875 201.097656 L 68.527344 191.414062 Z M 29.320312 159.390625 L 35.917969 164.542969 L 35.242188 165.40625 L 28.644531 160.253906 Z M 70.039062 189.332031 L 83.953125 198.71875 L 83.339844 199.628906 L 69.425781 190.242188 Z M 28.484375 161.304688 L 35.019531 165.714844 L 34.40625 166.625 L 27.871094 162.214844 Z M 70.789062 188.0625 L 86.242188 196.984375 L 85.691406 197.933594 L 70.238281 189.011719 Z M 27.773438 163.230469 L 34.207031 166.945312 L 33.65625 167.894531 L 27.222656 164.179688 Z M 71.445312 186.742188 L 88.359375 194.992188 L 87.878906 195.980469 L 70.964844 187.730469 Z M 27.164062 165.144531 L 33.480469 168.226562 L 33 169.214844 L 26.683594 166.132812 Z M 72.007812 185.382812 L 90.175781 192.722656 L 89.765625 193.738281 L 71.601562 186.398438 Z M 26.648438 167.054688 L 32.84375 169.558594 L 32.4375 170.574219 L 26.238281 168.070312 Z M 72.476562 183.984375 L 91.492188 190.160156 L 91.152344 191.207031 L 72.140625 185.027344 Z M 26.207031 168.949219 L 32.304688 170.929688 L 31.96875 171.972656 L 25.871094 169.992188 Z M 72.84375 182.554688 L 92.101562 187.359375 L 91.839844 188.421875 L 72.582031 183.621094 Z M 25.832031 170.832031 L 31.863281 172.335938 L 31.601562 173.402344 L 25.570312 171.898438 Z M 73.117188 181.105469 L 91.828125 184.40625 L 91.640625 185.484375 L 72.925781 182.1875 Z M 25.519531 172.710938 L 31.519531 173.769531 L 31.328125 174.851562 L 25.328125 173.792969 Z M 73.28125 179.640625 L 90.621094 181.464844 L 90.511719 182.554688 L 73.171875 180.730469 Z M 25.253906 174.59375 L 31.273438 175.226562 L 31.164062 176.316406 L 25.140625 175.683594 Z M 73.347656 178.167969 L 88.617188 178.703125 L 88.582031 179.796875 L 73.3125 179.261719 Z M 25.035156 176.480469 L 31.132812 176.695312 L 31.097656 177.789062 L 25 177.574219 Z M 73.3125 176.695312 L 86.09375 176.246094 L 86.128906 177.34375 L 73.347656 177.789062 Z M 24.867188 178.386719 L 31.097656 178.167969 L 31.132812 179.261719 L 24.902344 179.480469 Z M 73.171875 175.226562 L 83.34375 174.15625 L 83.457031 175.246094 L 73.28125 176.316406 Z M 24.734375 180.316406 L 31.164062 179.640625 L 31.273438 180.730469 L 24.84375 181.40625 Z M 72.925781 173.769531 L 80.605469 172.414062 L 80.792969 173.496094 L 73.117188 174.851562 Z M 24.644531 182.28125 L 31.328125 181.105469 L 31.519531 182.1875 L 24.832031 183.363281 Z M 72.582031 172.335938 L 78.011719 170.984375 L 78.273438 172.046875 L 72.84375 173.402344 Z M 24.59375 184.300781 L 31.601562 182.554688 L 31.863281 183.617188 L 24.855469 185.367188 Z M 72.140625 170.929688 L 75.640625 169.792969 L 75.980469 170.835938 L 72.476562 171.972656 Z M 24.585938 186.378906 L 31.96875 183.984375 L 32.304688 185.027344 L 24.925781 187.425781 Z M 71.601562 169.558594 L 73.578125 168.757812 L 73.984375 169.777344 L 72.007812 170.574219 Z M 24.644531 188.527344 L 32.4375 185.378906 L 32.84375 186.398438 L 25.050781 189.546875 Z M 70.964844 168.226562 L 71.75 167.84375 L 72.230469 168.828125 L 71.445312 169.214844 Z M 70.964844 168.226562 " fill-opacity="1" fill-rule="nonzero"/></g><path fill="#5e17eb" d="M 50.132812 209.035156 L 50.703125 199.046875 L 51.34375 199.082031 L 50.777344 209.070312 Z M 52.820312 199.09375 L 52.945312 208.789062 L 52.300781 208.796875 L 52.175781 199.101562 Z M 52.105469 144.0625 L 52.269531 156.859375 L 51.625 156.867188 L 51.460938 144.070312 Z M 54.292969 199 L 55.058594 208.257812 L 54.417969 208.3125 L 53.648438 199.054688 Z M 49.714844 143.84375 L 50.796875 156.90625 L 50.152344 156.960938 L 49.070312 143.894531 Z M 55.753906 198.804688 L 57.09375 207.519531 L 56.453125 207.617188 L 55.113281 198.902344 Z M 47.273438 143.667969 L 49.332031 157.058594 L 48.691406 157.15625 L 46.632812 143.765625 Z M 57.195312 198.507812 L 59.03125 206.617188 L 58.402344 206.757812 L 56.566406 198.648438 Z M 44.761719 143.535156 L 47.878906 157.3125 L 47.25 157.453125 L 44.132812 143.675781 Z M 58.617188 198.113281 L 60.863281 205.582031 L 60.246094 205.765625 L 58 198.296875 Z M 42.167969 143.4375 L 46.449219 157.664062 L 45.828125 157.847656 L 41.546875 143.621094 Z M 60.003906 197.617188 L 62.59375 204.453125 L 61.992188 204.679688 L 59.402344 197.84375 Z M 39.460938 143.378906 L 45.042969 158.117188 L 44.441406 158.34375 L 38.859375 143.605469 Z M 61.355469 197.027344 L 64.226562 203.25 L 63.640625 203.523438 L 60.769531 197.296875 Z M 36.625 143.371094 L 43.675781 158.664062 L 43.089844 158.933594 L 36.039062 143.640625 Z M 62.664062 196.339844 L 65.769531 202 L 65.203125 202.3125 L 62.097656 196.652344 Z M 33.703125 143.546875 L 42.351562 159.308594 L 41.785156 159.617188 L 33.136719 143.855469 Z M 63.917969 195.570312 L 67.222656 200.707031 L 66.679688 201.054688 L 63.375 195.917969 Z M 30.785156 144.042969 L 41.070312 160.042969 L 40.527344 160.390625 L 30.242188 144.394531 Z M 65.117188 194.710938 L 68.609375 199.386719 L 68.09375 199.773438 L 64.597656 195.097656 Z M 27.96875 144.953125 L 39.847656 160.863281 L 39.332031 161.25 L 27.453125 145.339844 Z M 66.25 193.769531 L 69.929688 198.039062 L 69.441406 198.460938 L 65.765625 194.191406 Z M 25.394531 146.34375 L 38.683594 161.769531 L 38.195312 162.191406 L 24.90625 146.765625 Z M 67.320312 192.753906 L 71.199219 196.667969 L 70.742188 197.121094 L 66.863281 193.207031 Z M 23.195312 148.238281 L 37.585938 162.753906 L 37.128906 163.207031 L 22.738281 148.691406 Z M 68.3125 191.664062 L 72.425781 195.269531 L 72 195.757812 L 67.886719 192.148438 Z M 21.484375 150.589844 L 36.558594 163.8125 L 36.132812 164.296875 L 21.058594 151.074219 Z M 69.226562 190.507812 L 73.613281 193.84375 L 73.226562 194.359375 L 68.839844 191.023438 Z M 20.296875 153.292969 L 35.609375 164.941406 L 35.21875 165.453125 L 19.90625 153.804688 Z M 70.0625 189.292969 L 74.78125 192.386719 L 74.425781 192.925781 L 69.707031 189.832031 Z M 19.589844 156.195312 L 34.738281 166.128906 L 34.386719 166.671875 L 19.238281 156.734375 Z M 70.808594 188.019531 L 75.929688 190.890625 L 75.613281 191.453125 L 70.492188 188.585938 Z M 19.289062 159.164062 L 33.957031 167.378906 L 33.640625 167.941406 L 18.972656 159.726562 Z M 71.460938 186.699219 L 77.066406 189.34375 L 76.789062 189.925781 L 71.1875 187.285156 Z M 19.296875 162.09375 L 33.261719 168.679688 L 32.984375 169.261719 L 19.023438 162.675781 Z M 72.023438 185.335938 L 78.195312 187.738281 L 77.960938 188.339844 L 71.789062 185.9375 Z M 19.523438 164.917969 L 32.65625 170.023438 L 32.425781 170.625 L 19.292969 165.519531 Z M 72.488281 183.9375 L 79.3125 186.058594 L 79.125 186.675781 L 72.296875 184.554688 Z M 19.90625 167.605469 L 32.148438 171.410156 L 31.960938 172.027344 L 19.71875 168.222656 Z M 72.855469 182.511719 L 80.425781 184.292969 L 80.28125 184.921875 L 72.707031 183.140625 Z M 20.390625 170.152344 L 31.742188 172.824219 L 31.59375 173.453125 L 20.246094 170.78125 Z M 73.121094 181.0625 L 81.527344 182.429688 L 81.421875 183.066406 L 73.015625 181.695312 Z M 20.945312 172.558594 L 31.433594 174.265625 L 31.328125 174.902344 L 20.839844 173.195312 Z M 73.285156 179.59375 L 82.589844 180.449219 L 82.53125 181.09375 L 73.226562 180.238281 Z M 21.539062 174.835938 L 31.222656 175.726562 L 31.164062 176.367188 L 21.480469 175.476562 Z M 73.34375 178.121094 L 83.609375 178.347656 L 83.597656 178.992188 L 73.332031 178.765625 Z M 22.164062 177 L 31.117188 177.199219 L 31.105469 177.839844 L 22.152344 177.644531 Z M 73.304688 176.648438 L 84.558594 176.109375 L 84.589844 176.753906 L 73.335938 177.292969 Z M 22.816406 179.070312 L 31.113281 178.671875 L 31.144531 179.316406 L 22.84375 179.710938 Z M 73.160156 175.179688 L 85.390625 173.734375 L 85.464844 174.375 L 73.234375 175.820312 Z M 23.476562 181.054688 L 31.214844 180.140625 L 31.289062 180.78125 L 23.554688 181.699219 Z M 72.914062 173.726562 L 86.046875 171.234375 L 86.164062 171.871094 L 73.03125 174.359375 Z M 24.15625 182.980469 L 31.414062 181.601562 L 31.535156 182.234375 L 24.273438 183.613281 Z M 72.566406 172.292969 L 86.472656 168.636719 L 86.636719 169.257812 L 72.730469 172.917969 Z M 24.871094 184.847656 L 31.71875 183.046875 L 31.882812 183.667969 L 25.035156 185.46875 Z M 72.121094 170.890625 L 86.601562 165.976562 L 86.808594 166.585938 L 72.328125 171.5 Z M 25.621094 186.667969 L 32.121094 184.460938 L 32.328125 185.074219 L 25.828125 187.28125 Z M 71.578125 169.519531 L 86.359375 163.320312 L 86.609375 163.917969 L 71.824219 170.113281 Z M 26.40625 188.457031 L 32.625 185.847656 L 32.871094 186.445312 L 26.652344 189.050781 Z M 70.941406 168.191406 L 85.710938 160.746094 L 86 161.320312 L 71.230469 168.765625 Z M 27.226562 190.21875 L 33.21875 187.199219 L 33.511719 187.773438 L 27.519531 190.792969 Z M 70.210938 166.90625 L 84.648438 158.320312 L 84.976562 158.875 L 70.539062 167.464844 Z M 28.101562 191.957031 L 33.910156 188.5 L 34.238281 189.054688 L 28.429688 192.511719 Z M 69.394531 165.679688 L 83.210938 156.097656 L 83.574219 156.628906 L 69.761719 166.210938 Z M 29.027344 193.679688 L 34.6875 189.753906 L 35.054688 190.28125 L 29.394531 194.207031 Z M 68.496094 164.511719 L 81.445312 154.121094 L 81.847656 154.625 L 68.898438 165.015625 Z M 30.023438 195.382812 L 35.550781 190.949219 L 35.957031 191.449219 L 30.429688 195.886719 Z M 67.515625 163.410156 L 79.433594 152.398438 L 79.871094 152.871094 L 67.953125 163.886719 Z M 31.097656 197.070312 L 36.496094 192.078125 L 36.933594 192.554688 L 31.535156 197.542969 Z M 66.464844 162.378906 L 77.253906 150.910156 L 77.722656 151.355469 L 66.933594 162.820312 Z M 32.257812 198.734375 L 37.519531 193.144531 L 37.988281 193.585938 L 32.726562 199.175781 Z M 65.339844 161.425781 L 74.964844 149.644531 L 75.464844 150.050781 L 65.839844 161.832031 Z M 33.519531 200.367188 L 38.613281 194.132812 L 39.113281 194.539062 L 34.015625 200.773438 Z M 64.152344 160.550781 L 72.617188 148.574219 L 73.144531 148.945312 L 64.679688 160.921875 Z M 34.890625 201.945312 L 39.773438 195.042969 L 40.300781 195.414062 L 35.417969 202.316406 Z M 62.910156 159.761719 L 70.246094 147.667969 L 70.796875 148.003906 L 63.460938 160.09375 Z M 36.386719 203.457031 L 40.992188 195.871094 L 41.542969 196.203125 L 36.9375 203.789062 Z M 61.609375 159.058594 L 67.871094 146.90625 L 68.445312 147.203125 L 62.183594 159.355469 Z M 38.015625 204.859375 L 42.265625 196.609375 L 42.839844 196.902344 L 38.589844 205.15625 Z M 60.269531 158.449219 L 65.507812 146.261719 L 66.097656 146.515625 L 60.859375 158.707031 Z M 39.78125 206.125 L 43.589844 197.257812 L 44.183594 197.511719 L 40.375 206.378906 Z M 58.886719 157.9375 L 63.15625 145.71875 L 63.761719 145.929688 L 59.496094 158.148438 Z M 41.671875 207.214844 L 44.957031 197.8125 L 45.566406 198.023438 L 42.28125 207.429688 Z M 57.472656 157.523438 L 60.816406 145.261719 L 61.4375 145.429688 L 58.09375 157.691406 Z M 43.6875 208.074219 L 46.359375 198.273438 L 46.980469 198.441406 L 44.308594 208.242188 Z M 56.03125 157.207031 L 58.484375 144.875 L 59.117188 145 L 56.664062 157.332031 Z M 45.789062 208.683594 L 47.789062 198.632812 L 48.421875 198.757812 L 46.421875 208.808594 Z M 54.574219 156.992188 L 56.15625 144.554688 L 56.796875 144.632812 L 55.210938 157.074219 Z M 47.953125 209.003906 L 49.238281 198.890625 L 49.878906 198.972656 L 48.589844 209.082031 Z M 53.105469 156.878906 L 53.820312 144.289062 L 54.464844 144.324219 L 53.746094 156.914062 Z M 53.105469 156.878906 " fill-opacity="1" fill-rule="nonzero"/><g clip-path="url(#511f937e43)"><path fill="#5e17eb" d="M 50.28125 214.234375 L 50.992188 199.066406 L 51.476562 199.085938 L 50.761719 214.253906 Z M 52.949219 199.089844 L 53.3125 214.929688 L 52.828125 214.9375 L 52.464844 199.097656 Z M 51.621094 141.113281 L 51.980469 156.863281 L 51.496094 156.871094 L 51.136719 141.121094 Z M 54.417969 198.988281 L 55.957031 215.507812 L 55.476562 215.550781 L 53.9375 199.03125 Z M 49.167969 142.523438 L 50.507812 156.929688 L 50.027344 156.972656 L 48.6875 142.566406 Z M 55.878906 198.78125 L 58.699219 215.964844 L 58.222656 216.042969 L 55.402344 198.859375 Z M 46.898438 144.019531 L 49.042969 157.097656 L 48.566406 157.175781 L 46.421875 144.097656 Z M 57.324219 198.476562 L 61.53125 216.269531 L 61.0625 216.378906 L 56.851562 198.585938 Z M 44.796875 145.554688 L 47.597656 157.371094 L 47.125 157.484375 L 44.328125 145.664062 Z M 58.738281 198.070312 L 64.441406 216.367188 L 63.980469 216.511719 L 58.277344 198.214844 Z M 42.847656 147.09375 L 46.167969 157.746094 L 45.707031 157.890625 L 42.386719 147.238281 Z M 60.125 197.566406 L 67.394531 216.195312 L 66.941406 216.371094 L 59.671875 197.742188 Z M 41.03125 148.628906 L 44.773438 158.214844 L 44.320312 158.390625 L 40.582031 148.804688 Z M 61.472656 196.96875 L 70.320312 215.667969 L 69.882812 215.875 L 61.035156 197.171875 Z M 39.328125 150.148438 L 43.410156 158.785156 L 42.972656 158.992188 L 38.890625 150.355469 Z M 62.773438 196.277344 L 73.109375 214.683594 L 72.6875 214.917969 L 62.351562 196.511719 Z M 37.71875 151.652344 L 42.09375 159.445312 L 41.671875 159.683594 L 37.296875 151.890625 Z M 64.023438 195.496094 L 75.617188 213.132812 L 75.214844 213.398438 L 63.621094 195.761719 Z M 36.1875 153.140625 L 40.828125 160.199219 L 40.421875 160.464844 L 35.785156 153.40625 Z M 65.21875 194.628906 L 77.632812 210.917969 L 77.246094 211.210938 L 64.832031 194.921875 Z M 34.722656 154.617188 L 39.613281 161.035156 L 39.230469 161.328125 L 34.335938 154.910156 Z M 66.347656 193.683594 L 78.925781 207.992188 L 78.5625 208.3125 L 65.984375 194.003906 Z M 33.304688 156.085938 L 38.464844 161.957031 L 38.101562 162.277344 L 32.941406 156.40625 Z M 67.410156 192.660156 L 79.324219 204.445312 L 78.984375 204.789062 L 67.070312 193.003906 Z M 31.929688 157.566406 L 37.378906 162.957031 L 37.039062 163.300781 L 31.589844 157.910156 Z M 68.394531 191.5625 L 78.816406 200.523438 L 78.503906 200.890625 L 68.082031 191.929688 Z M 30.589844 159.058594 L 36.367188 164.027344 L 36.050781 164.394531 L 30.273438 159.425781 Z M 69.304688 190.402344 L 78.203125 197.035156 L 77.914062 197.421875 L 69.015625 190.792969 Z M 29.277344 160.582031 L 35.433594 165.167969 L 35.144531 165.558594 L 28.988281 160.972656 Z M 70.128906 189.183594 L 77.75 194.074219 L 77.492188 194.480469 L 69.867188 189.589844 Z M 27.992188 162.144531 L 34.578125 166.371094 L 34.320312 166.777344 L 27.730469 162.550781 Z M 70.867188 187.90625 L 77.402344 191.480469 L 77.171875 191.90625 L 70.636719 188.328125 Z M 26.730469 163.753906 L 33.8125 167.628906 L 33.582031 168.054688 L 26.5 164.179688 Z M 71.515625 186.582031 L 77.128906 189.160156 L 76.925781 189.601562 L 71.3125 187.019531 Z M 25.492188 165.429688 L 33.136719 168.941406 L 32.933594 169.378906 L 25.292969 165.867188 Z M 72.066406 185.214844 L 76.902344 187.039062 L 76.730469 187.492188 L 71.894531 185.667969 Z M 24.285156 167.171875 L 32.550781 170.292969 L 32.382812 170.746094 L 24.113281 167.625 Z M 72.523438 183.8125 L 76.710938 185.066406 L 76.574219 185.53125 L 72.386719 184.277344 Z M 23.109375 169 L 32.0625 171.683594 L 31.925781 172.148438 L 22.96875 169.464844 Z M 72.878906 182.382812 L 76.546875 183.207031 L 76.441406 183.679688 L 72.773438 182.855469 Z M 21.972656 170.921875 L 31.671875 173.105469 L 31.566406 173.578125 L 21.867188 171.394531 Z M 73.136719 180.929688 L 76.40625 181.429688 L 76.332031 181.910156 L 73.066406 181.410156 Z M 20.902344 172.949219 L 31.382812 174.550781 L 31.3125 175.03125 L 20.828125 173.429688 Z M 73.292969 179.464844 L 76.277344 179.707031 L 76.242188 180.191406 L 73.253906 179.945312 Z M 19.910156 175.089844 L 31.195312 176.011719 L 31.15625 176.496094 L 19.875 175.570312 Z M 73.34375 177.992188 L 76.164062 178.023438 L 76.160156 178.507812 L 73.339844 178.472656 Z M 19.035156 177.339844 L 31.109375 177.484375 L 31.105469 177.96875 L 19.03125 177.824219 Z M 73.296875 176.519531 L 76.0625 176.359375 L 76.089844 176.839844 L 73.320312 177 Z M 18.316406 179.703125 L 31.125 178.960938 L 31.152344 179.441406 L 18.34375 180.183594 Z M 73.140625 175.050781 L 75.96875 174.6875 L 76.03125 175.167969 L 73.203125 175.53125 Z M 17.796875 182.15625 L 31.246094 180.429688 L 31.308594 180.90625 L 17.855469 182.632812 Z M 72.886719 173.597656 L 75.882812 173 L 75.976562 173.476562 L 72.980469 174.074219 Z M 17.519531 184.675781 L 31.46875 181.886719 L 31.5625 182.359375 L 17.617188 185.152344 Z M 72.53125 172.167969 L 75.800781 171.273438 L 75.929688 171.738281 L 72.65625 172.636719 Z M 17.539062 187.226562 L 31.792969 183.324219 L 31.917969 183.789062 L 17.667969 187.695312 Z M 72.078125 170.765625 L 75.726562 169.488281 L 75.886719 169.945312 L 72.234375 171.222656 Z M 17.882812 189.761719 L 32.214844 184.738281 L 32.375 185.195312 L 18.042969 190.214844 Z M 71.523438 169.398438 L 75.65625 167.617188 L 75.847656 168.0625 L 71.714844 169.84375 Z M 18.5625 192.222656 L 32.734375 186.117188 L 32.925781 186.5625 L 18.753906 192.667969 Z M 70.878906 168.074219 L 75.589844 165.640625 L 75.8125 166.070312 L 71.101562 168.503906 Z M 19.5625 194.574219 L 33.351562 187.457031 L 33.570312 187.886719 L 19.785156 195.003906 Z M 70.140625 166.796875 L 75.53125 163.519531 L 75.78125 163.933594 L 70.394531 167.210938 Z M 20.859375 196.78125 L 34.054688 188.75 L 34.308594 189.164062 L 21.109375 197.191406 Z M 69.320312 165.574219 L 75.46875 161.21875 L 75.746094 161.613281 L 69.597656 165.96875 Z M 22.398438 198.816406 L 34.851562 189.992188 L 35.132812 190.386719 L 22.675781 199.210938 Z M 68.410156 164.414062 L 75.339844 158.738281 L 75.648438 159.113281 L 68.71875 164.789062 Z M 24.132812 200.671875 L 35.730469 191.175781 L 36.039062 191.550781 L 24.4375 201.046875 Z M 67.425781 163.316406 L 75.097656 156.085938 L 75.429688 156.4375 L 67.757812 163.667969 Z M 26.015625 202.359375 L 36.691406 192.292969 L 37.023438 192.644531 L 26.347656 202.710938 Z M 66.367188 162.292969 L 74.6875 153.269531 L 75.046875 153.597656 L 66.722656 162.621094 Z M 28.003906 203.886719 L 37.730469 193.34375 L 38.085938 193.671875 L 28.359375 204.214844 Z M 65.238281 161.34375 L 74.054688 150.332031 L 74.433594 150.636719 L 65.613281 161.648438 Z M 30.066406 205.265625 L 38.835938 194.316406 L 39.214844 194.617188 L 30.445312 205.570312 Z M 64.046875 160.480469 L 73.121094 147.367188 L 73.515625 147.640625 L 64.441406 160.753906 Z M 32.183594 206.515625 L 40.007812 195.210938 L 40.40625 195.484375 L 32.582031 206.789062 Z M 62.796875 159.699219 L 71.808594 144.511719 L 72.222656 144.757812 L 63.210938 159.945312 Z M 34.332031 207.660156 L 41.238281 196.023438 L 41.65625 196.269531 L 34.75 207.90625 Z M 61.496094 159.003906 L 70.054688 141.976562 L 70.488281 142.191406 L 61.925781 159.222656 Z M 36.492188 208.746094 L 42.523438 196.746094 L 42.957031 196.960938 L 36.925781 208.960938 Z M 60.148438 158.40625 L 67.855469 139.964844 L 68.304688 140.152344 L 60.59375 158.589844 Z M 38.671875 209.78125 L 43.855469 197.375 L 44.304688 197.5625 L 39.117188 209.96875 Z M 58.761719 157.898438 L 65.277344 138.644531 L 65.734375 138.800781 L 59.222656 158.054688 Z M 40.878906 210.773438 L 45.230469 197.910156 L 45.6875 198.066406 L 41.335938 210.929688 Z M 57.347656 157.492188 L 62.4375 138.066406 L 62.90625 138.1875 L 57.8125 157.613281 Z M 43.132812 211.71875 L 46.636719 198.351562 L 47.105469 198.472656 L 43.601562 211.839844 Z M 55.902344 157.183594 L 59.496094 138.160156 L 59.96875 138.25 L 56.378906 157.273438 Z M 45.445312 212.613281 L 48.070312 198.691406 L 48.546875 198.78125 L 45.917969 212.699219 Z M 54.445312 156.980469 L 56.574219 138.804688 L 57.054688 138.859375 L 54.925781 157.035156 Z M 47.824219 213.453125 L 49.527344 198.929688 L 50.007812 198.984375 L 48.304688 213.507812 Z M 52.972656 156.875 L 53.773438 139.832031 L 54.257812 139.855469 L 53.457031 156.894531 Z M 52.972656 156.875 " fill-opacity="1" fill-rule="nonzero"/></g><g fill="#001838" fill-opacity="1"><g transform="translate(96.230643, 187.432208)"><g><path d="M 5.90625 -0.953125 C 4.570312 -1.722656 3.691406 -2.753906 3.265625 -4.046875 C 2.835938 -5.335938 2.640625 -6.710938 2.671875 -8.171875 C 2.691406 -9.023438 2.695312 -9.878906 2.6875 -10.734375 C 2.675781 -11.585938 2.671875 -12.425781 2.671875 -13.25 C 2.671875 -13.832031 2.675781 -14.421875 2.6875 -15.015625 C 2.695312 -15.609375 2.46875 -16.140625 2 -16.609375 C 1.757812 -16.878906 1.457031 -17.054688 1.09375 -17.140625 C 0.726562 -17.222656 0.460938 -17.445312 0.296875 -17.8125 C 0.222656 -17.976562 0.171875 -18.144531 0.140625 -18.3125 C 0.117188 -18.488281 0.0976562 -18.660156 0.078125 -18.828125 C 0.046875 -19.222656 0.0390625 -19.609375 0.0625 -19.984375 C 0.09375 -20.359375 0.253906 -20.691406 0.546875 -20.984375 C 0.785156 -21.203125 1.066406 -21.34375 1.390625 -21.40625 C 1.722656 -21.46875 2 -21.632812 2.21875 -21.90625 C 2.632812 -22.382812 2.84375 -22.914062 2.84375 -23.5 C 2.84375 -24.082031 2.820312 -24.644531 2.78125 -25.1875 C 2.726562 -25.601562 2.695312 -25.9375 2.6875 -26.1875 C 2.675781 -26.445312 2.863281 -26.6875 3.25 -26.90625 C 3.539062 -27.070312 3.910156 -27.15625 4.359375 -27.15625 C 4.804688 -27.15625 5.253906 -27.128906 5.703125 -27.078125 C 6.160156 -27.035156 6.546875 -26.988281 6.859375 -26.9375 C 7.492188 -26.863281 7.832031 -26.625 7.875 -26.21875 C 7.925781 -25.820312 7.929688 -25.367188 7.890625 -24.859375 C 7.785156 -23.441406 8.039062 -22.394531 8.65625 -21.71875 C 8.945312 -21.40625 9.273438 -21.21875 9.640625 -21.15625 C 10.003906 -21.09375 10.375 -21.070312 10.75 -21.09375 C 11.125 -21.125 11.484375 -21.125 11.828125 -21.09375 C 12.171875 -21.070312 12.460938 -20.941406 12.703125 -20.703125 C 12.972656 -20.429688 13.085938 -20.019531 13.046875 -19.46875 C 13.015625 -18.925781 12.972656 -18.484375 12.921875 -18.140625 C 12.867188 -17.679688 12.664062 -17.351562 12.3125 -17.15625 C 11.96875 -16.957031 11.554688 -16.8125 11.078125 -16.71875 C 10.597656 -16.625 10.132812 -16.507812 9.6875 -16.375 C 9.238281 -16.238281 8.894531 -16.007812 8.65625 -15.6875 C 8.382812 -15.351562 8.15625 -14.773438 7.96875 -13.953125 C 7.789062 -13.140625 7.6875 -12.226562 7.65625 -11.21875 C 7.632812 -10.207031 7.703125 -9.238281 7.859375 -8.3125 C 8.023438 -7.394531 8.3125 -6.628906 8.71875 -6.015625 C 9.132812 -5.410156 9.679688 -5.109375 10.359375 -5.109375 C 10.648438 -5.109375 10.960938 -5.164062 11.296875 -5.28125 C 11.628906 -5.40625 11.953125 -5.507812 12.265625 -5.59375 C 12.578125 -5.6875 12.859375 -5.671875 13.109375 -5.546875 C 13.441406 -5.421875 13.726562 -5.097656 13.96875 -4.578125 C 14.21875 -4.054688 14.414062 -3.648438 14.5625 -3.359375 C 14.707031 -3.085938 14.804688 -2.820312 14.859375 -2.5625 C 14.878906 -2.1875 14.726562 -1.894531 14.40625 -1.6875 C 14.09375 -1.488281 13.804688 -1.316406 13.546875 -1.171875 C 12.347656 -0.484375 11.078125 -0.0976562 9.734375 -0.015625 C 8.398438 0.0664062 7.125 -0.242188 5.90625 -0.953125 Z M 5.90625 -0.953125 "/></g></g></g><g fill="#001838" fill-opacity="1"><g transform="translate(113.419615, 187.432208)"><g><path d="M 19.3125 -13.21875 C 19.457031 -12 19.519531 -10.769531 19.5 -9.53125 C 19.488281 -8.289062 19.484375 -7.144531 19.484375 -6.09375 C 19.484375 -5.851562 19.507812 -5.421875 19.5625 -4.796875 C 19.613281 -4.179688 19.640625 -3.53125 19.640625 -2.84375 C 19.640625 -2.164062 19.582031 -1.578125 19.46875 -1.078125 C 19.363281 -0.578125 19.164062 -0.300781 18.875 -0.25 C 18.476562 -0.207031 17.96875 -0.132812 17.34375 -0.03125 C 16.726562 0.0625 16.132812 0.0820312 15.5625 0.03125 C 14.988281 -0.0078125 14.554688 -0.210938 14.265625 -0.578125 C 13.929688 -1.015625 13.800781 -1.566406 13.875 -2.234375 C 13.945312 -2.910156 13.96875 -3.492188 13.9375 -3.984375 C 13.9375 -5.335938 13.929688 -6.679688 13.921875 -8.015625 C 13.910156 -9.359375 13.914062 -10.703125 13.9375 -12.046875 C 13.9375 -13.304688 13.632812 -14.3125 13.03125 -15.0625 C 12.425781 -15.820312 11.550781 -16.273438 10.40625 -16.421875 C 10.332031 -16.453125 10.257812 -16.46875 10.1875 -16.46875 C 10.113281 -16.46875 10.039062 -16.46875 9.96875 -16.46875 C 9.257812 -16.46875 8.59375 -16.273438 7.96875 -15.890625 C 7.351562 -15.515625 6.84375 -15.015625 6.4375 -14.390625 C 6.039062 -13.773438 5.804688 -13.09375 5.734375 -12.34375 C 5.660156 -11.4375 5.613281 -10.539062 5.59375 -9.65625 C 5.582031 -8.769531 5.59375 -7.890625 5.625 -7.015625 C 5.625 -6.035156 5.613281 -5.046875 5.59375 -4.046875 C 5.582031 -3.054688 5.578125 -2.0625 5.578125 -1.0625 C 5.578125 -0.695312 5.390625 -0.441406 5.015625 -0.296875 C 4.640625 -0.148438 4.175781 -0.078125 3.625 -0.078125 C 3.082031 -0.078125 2.5625 -0.0976562 2.0625 -0.140625 C 1.5625 -0.191406 1.175781 -0.21875 0.90625 -0.21875 C 0.539062 -0.21875 0.289062 -0.394531 0.15625 -0.75 C 0.03125 -1.101562 -0.0195312 -1.519531 0 -2 C 0.0195312 -2.488281 0.0625 -2.957031 0.125 -3.40625 C 0.1875 -3.863281 0.21875 -4.210938 0.21875 -4.453125 C 0.238281 -5.160156 0.253906 -5.863281 0.265625 -6.5625 C 0.285156 -7.269531 0.296875 -7.976562 0.296875 -8.6875 C 0.296875 -11.726562 0.265625 -14.769531 0.203125 -17.8125 C 0.140625 -20.851562 0.109375 -23.882812 0.109375 -26.90625 C 0.109375 -27.289062 0.15625 -27.644531 0.25 -27.96875 C 0.351562 -28.300781 0.625 -28.515625 1.0625 -28.609375 C 1.59375 -28.734375 2.148438 -28.765625 2.734375 -28.703125 C 3.316406 -28.640625 3.878906 -28.597656 4.421875 -28.578125 C 5.078125 -28.554688 5.515625 -28.328125 5.734375 -27.890625 C 5.953125 -27.453125 6.039062 -26.910156 6 -26.265625 C 5.96875 -25.617188 5.890625 -24.984375 5.765625 -24.359375 C 5.640625 -23.742188 5.578125 -23.238281 5.578125 -22.84375 L 5.578125 -20.984375 C 5.578125 -20.722656 5.6875 -20.492188 5.90625 -20.296875 C 6.050781 -20.148438 6.257812 -20.078125 6.53125 -20.078125 C 6.550781 -20.078125 6.566406 -20.078125 6.578125 -20.078125 C 6.597656 -20.078125 6.617188 -20.078125 6.640625 -20.078125 C 7.035156 -20.117188 7.40625 -20.171875 7.75 -20.234375 C 8.101562 -20.296875 8.441406 -20.351562 8.765625 -20.40625 C 9.390625 -20.53125 9.992188 -20.628906 10.578125 -20.703125 C 11.171875 -20.773438 11.734375 -20.8125 12.265625 -20.8125 C 13.921875 -20.8125 15.226562 -20.457031 16.1875 -19.75 C 17.144531 -19.039062 17.859375 -18.109375 18.328125 -16.953125 C 18.804688 -15.796875 19.132812 -14.550781 19.3125 -13.21875 Z M 19.3125 -13.21875 "/></g></g></g><g fill="#001838" fill-opacity="1"><g transform="translate(135.352882, 187.432208)"><g><path d="M 20.46875 -9.265625 C 20.175781 -9.023438 19.742188 -8.863281 19.171875 -8.78125 C 18.609375 -8.695312 18.003906 -8.65625 17.359375 -8.65625 C 16.710938 -8.65625 16.109375 -8.664062 15.546875 -8.6875 C 14.984375 -8.707031 14.554688 -8.71875 14.265625 -8.71875 C 13.003906 -8.695312 11.753906 -8.679688 10.515625 -8.671875 C 9.273438 -8.660156 8.019531 -8.65625 6.75 -8.65625 C 6.363281 -8.65625 6.113281 -8.53125 6 -8.28125 C 5.894531 -8.039062 5.882812 -7.769531 5.96875 -7.46875 C 6.050781 -7.164062 6.164062 -6.898438 6.3125 -6.671875 C 6.820312 -6.015625 7.457031 -5.484375 8.21875 -5.078125 C 8.988281 -4.679688 9.789062 -4.4375 10.625 -4.34375 C 11.550781 -4.25 12.320312 -4.375 12.9375 -4.71875 C 13.5625 -5.070312 14.257812 -5.445312 15.03125 -5.84375 C 15.394531 -6.03125 15.644531 -6.148438 15.78125 -6.203125 C 15.914062 -6.253906 16.144531 -6.144531 16.46875 -5.875 C 16.800781 -5.601562 17.117188 -5.238281 17.421875 -4.78125 C 17.734375 -4.320312 18.035156 -3.921875 18.328125 -3.578125 C 18.640625 -3.160156 18.625 -2.769531 18.28125 -2.40625 C 17.945312 -2.039062 17.425781 -1.707031 16.71875 -1.40625 C 16.007812 -1.101562 15.238281 -0.84375 14.40625 -0.625 C 13.582031 -0.40625 12.835938 -0.234375 12.171875 -0.109375 C 11.503906 0.015625 11.046875 0.078125 10.796875 0.078125 C 9.171875 0.078125 7.671875 -0.242188 6.296875 -0.890625 C 4.921875 -1.535156 3.742188 -2.410156 2.765625 -3.515625 C 1.796875 -4.628906 1.066406 -5.878906 0.578125 -7.265625 C 0.0976562 -8.648438 -0.0859375 -10.101562 0.015625 -11.625 C 0.128906 -13.144531 0.597656 -14.625 1.421875 -16.0625 C 2.054688 -17.175781 2.898438 -18.125 3.953125 -18.90625 C 5.015625 -19.6875 6.179688 -20.265625 7.453125 -20.640625 C 8.734375 -21.015625 10.039062 -21.179688 11.375 -21.140625 C 12.71875 -21.109375 13.992188 -20.84375 15.203125 -20.34375 C 16.410156 -19.84375 17.460938 -19.097656 18.359375 -18.109375 C 18.773438 -17.640625 19.171875 -17.054688 19.546875 -16.359375 C 19.921875 -15.671875 20.242188 -14.925781 20.515625 -14.125 C 20.785156 -13.320312 20.945312 -12.535156 21 -11.765625 C 21.0625 -11.003906 20.984375 -10.304688 20.765625 -9.671875 C 20.722656 -9.523438 20.625 -9.390625 20.46875 -9.265625 Z M 14.96875 -13.0625 C 15.039062 -13.238281 15.0625 -13.421875 15.03125 -13.609375 C 15.007812 -13.898438 14.878906 -14.179688 14.640625 -14.453125 C 13.984375 -15.378906 13.128906 -16.0625 12.078125 -16.5 C 11.035156 -16.9375 9.96875 -16.910156 8.875 -16.421875 C 8.382812 -16.203125 7.925781 -15.921875 7.5 -15.578125 C 7.070312 -15.242188 6.675781 -14.878906 6.3125 -14.484375 C 6.21875 -14.390625 6.117188 -14.28125 6.015625 -14.15625 C 5.921875 -14.039062 5.847656 -13.910156 5.796875 -13.765625 C 5.703125 -13.472656 5.75 -13.203125 5.9375 -12.953125 C 6.132812 -12.710938 6.378906 -12.59375 6.671875 -12.59375 L 14.125 -12.59375 C 14.539062 -12.59375 14.820312 -12.75 14.96875 -13.0625 Z M 14.96875 -13.0625 "/></g></g></g><g fill="#001838" fill-opacity="1"><g transform="translate(158.672959, 187.432208)"><g><path d="M 14.671875 -1.53125 C 14.578125 -1.164062 14.40625 -0.847656 14.15625 -0.578125 C 13.769531 -0.140625 13.257812 0.0507812 12.625 0 C 12 -0.0507812 11.425781 -0.078125 10.90625 -0.078125 C 10.226562 -0.078125 9.679688 -0.101562 9.265625 -0.15625 C 8.859375 -0.21875 8.515625 -0.375 8.234375 -0.625 C 7.953125 -0.882812 7.671875 -1.304688 7.390625 -1.890625 C 7.109375 -2.484375 6.75 -3.300781 6.3125 -4.34375 C 5.925781 -5.707031 5.421875 -7.066406 4.796875 -8.421875 C 4.179688 -9.785156 3.601562 -11.140625 3.0625 -12.484375 C 2.988281 -12.679688 2.820312 -13.070312 2.5625 -13.65625 C 2.3125 -14.238281 2.019531 -14.90625 1.6875 -15.65625 C 1.363281 -16.414062 1.054688 -17.164062 0.765625 -17.90625 C 0.472656 -18.644531 0.257812 -19.28125 0.125 -19.8125 C -0.0078125 -20.351562 -0.015625 -20.671875 0.109375 -20.765625 C 0.203125 -20.867188 0.316406 -20.925781 0.453125 -20.9375 C 0.585938 -20.945312 0.71875 -20.953125 0.84375 -20.953125 C 1.519531 -20.929688 2.234375 -20.941406 2.984375 -20.984375 C 3.742188 -21.035156 4.453125 -20.976562 5.109375 -20.8125 C 5.234375 -20.78125 5.394531 -20.660156 5.59375 -20.453125 C 5.800781 -20.242188 5.957031 -20.019531 6.0625 -19.78125 C 6.539062 -18.59375 7.023438 -17.382812 7.515625 -16.15625 C 8.003906 -14.925781 8.492188 -13.664062 8.984375 -12.375 C 9.054688 -12.15625 9.175781 -11.832031 9.34375 -11.40625 C 9.507812 -10.976562 9.707031 -10.546875 9.9375 -10.109375 C 10.175781 -9.671875 10.421875 -9.3125 10.671875 -9.03125 C 10.929688 -8.75 11.191406 -8.644531 11.453125 -8.71875 C 11.722656 -8.789062 11.984375 -9.132812 12.234375 -9.75 C 12.910156 -11.425781 13.578125 -13.101562 14.234375 -14.78125 C 14.890625 -16.457031 15.5625 -18.125 16.25 -19.78125 C 16.320312 -19.925781 16.394531 -20.070312 16.46875 -20.21875 C 16.539062 -20.363281 16.625 -20.5 16.71875 -20.625 C 16.863281 -20.769531 17.15625 -20.894531 17.59375 -21 C 18.03125 -21.113281 18.519531 -21.175781 19.0625 -21.1875 C 19.613281 -21.195312 20.132812 -21.164062 20.625 -21.09375 C 21.113281 -21.019531 21.488281 -20.878906 21.75 -20.671875 C 22.019531 -20.460938 22.082031 -20.175781 21.9375 -19.8125 C 20.738281 -16.820312 19.546875 -13.820312 18.359375 -10.8125 C 17.171875 -7.8125 15.988281 -4.816406 14.8125 -1.828125 C 14.769531 -1.679688 14.722656 -1.582031 14.671875 -1.53125 Z M 14.671875 -1.53125 "/></g></g></g><g fill="#001838" fill-opacity="1"><g transform="translate(182.978387, 187.432208)"><g><path d="M 0.03125 -10.578125 C 0.0078125 -11.941406 0.273438 -13.300781 0.828125 -14.65625 C 1.390625 -16.007812 2.171875 -17.195312 3.171875 -18.21875 C 4.117188 -19.1875 5.203125 -19.925781 6.421875 -20.4375 C 7.640625 -20.945312 8.894531 -21.203125 10.1875 -21.203125 C 10.300781 -21.203125 10.425781 -21.203125 10.5625 -21.203125 C 10.695312 -21.203125 10.828125 -21.203125 10.953125 -21.203125 C 10.953125 -21.203125 10.957031 -21.203125 10.96875 -21.203125 C 10.976562 -21.203125 10.984375 -21.203125 10.984375 -21.203125 C 13.097656 -21.203125 14.960938 -20.765625 16.578125 -19.890625 C 18.203125 -19.015625 19.476562 -17.796875 20.40625 -16.234375 C 21.332031 -14.679688 21.796875 -12.882812 21.796875 -10.84375 C 21.796875 -7.65625 20.796875 -5.0625 18.796875 -3.0625 C 17.828125 -2.09375 16.664062 -1.34375 15.3125 -0.8125 C 13.957031 -0.289062 12.488281 -0.03125 10.90625 -0.03125 C 9.40625 -0.03125 8.003906 -0.300781 6.703125 -0.84375 C 5.398438 -1.394531 4.253906 -2.148438 3.265625 -3.109375 C 2.273438 -4.078125 1.492188 -5.195312 0.921875 -6.46875 C 0.359375 -7.75 0.0625 -9.117188 0.03125 -10.578125 Z M 10.796875 -16.859375 C 9.953125 -16.859375 9.128906 -16.582031 8.328125 -16.03125 C 7.523438 -15.488281 6.859375 -14.785156 6.328125 -13.921875 C 5.804688 -13.054688 5.535156 -12.148438 5.515625 -11.203125 C 5.484375 -10.160156 5.648438 -9.148438 6.015625 -8.171875 C 6.378906 -7.203125 6.9375 -6.390625 7.6875 -5.734375 C 8.445312 -5.078125 9.390625 -4.6875 10.515625 -4.5625 C 11.753906 -4.4375 12.796875 -4.628906 13.640625 -5.140625 C 14.492188 -5.648438 15.148438 -6.347656 15.609375 -7.234375 C 16.078125 -8.128906 16.335938 -9.101562 16.390625 -10.15625 C 16.441406 -11.21875 16.28125 -12.234375 15.90625 -13.203125 C 15.539062 -14.179688 14.957031 -15.003906 14.15625 -15.671875 C 13.351562 -16.347656 12.332031 -16.742188 11.09375 -16.859375 C 11.039062 -16.859375 10.988281 -16.859375 10.9375 -16.859375 C 10.894531 -16.859375 10.847656 -16.859375 10.796875 -16.859375 Z M 10.796875 -16.859375 "/></g></g></g><g fill="#001838" fill-opacity="1"><g transform="translate(207.064845, 187.432208)"><g><path d="M 1.390625 -23 C 0.847656 -23.332031 0.457031 -23.8125 0.21875 -24.4375 C -0.0195312 -25.0625 -0.03125 -25.738281 0.1875 -26.46875 C 0.59375 -27.894531 1.566406 -28.632812 3.109375 -28.6875 L 3.171875 -28.6875 C 3.929688 -28.6875 4.566406 -28.484375 5.078125 -28.078125 C 5.585938 -27.679688 5.925781 -27.128906 6.09375 -26.421875 C 6.3125 -25.546875 6.222656 -24.742188 5.828125 -24.015625 C 5.441406 -23.285156 4.789062 -22.8125 3.875 -22.59375 C 3.40625 -22.5 2.957031 -22.488281 2.53125 -22.5625 C 2.101562 -22.632812 1.722656 -22.78125 1.390625 -23 Z M 0.875 -19.34375 C 1.21875 -19.5625 1.707031 -19.660156 2.34375 -19.640625 C 2.707031 -19.640625 3.109375 -19.648438 3.546875 -19.671875 C 3.984375 -19.691406 4.390625 -19.644531 4.765625 -19.53125 C 5.140625 -19.425781 5.390625 -19.179688 5.515625 -18.796875 C 5.734375 -18.191406 5.804688 -17.457031 5.734375 -16.59375 C 5.660156 -15.726562 5.625 -14.976562 5.625 -14.34375 C 5.644531 -12.863281 5.65625 -11.390625 5.65625 -9.921875 C 5.65625 -8.460938 5.664062 -6.992188 5.6875 -5.515625 C 5.6875 -5.265625 5.71875 -4.851562 5.78125 -4.28125 C 5.84375 -3.71875 5.878906 -3.101562 5.890625 -2.4375 C 5.898438 -1.78125 5.832031 -1.222656 5.6875 -0.765625 C 5.539062 -0.304688 5.25 -0.0625 4.8125 -0.03125 C 4.257812 -0.0078125 3.675781 0.00390625 3.0625 0.015625 C 2.457031 0.0234375 1.875 -0.00390625 1.3125 -0.078125 C 0.925781 -0.117188 0.660156 -0.328125 0.515625 -0.703125 C 0.367188 -1.085938 0.285156 -1.546875 0.265625 -2.078125 C 0.253906 -2.617188 0.273438 -3.128906 0.328125 -3.609375 C 0.378906 -4.097656 0.40625 -4.476562 0.40625 -4.75 C 0.375 -5.738281 0.351562 -6.738281 0.34375 -7.75 C 0.332031 -8.757812 0.328125 -9.765625 0.328125 -10.765625 C 0.304688 -11.617188 0.296875 -12.46875 0.296875 -13.3125 C 0.296875 -14.164062 0.28125 -15.007812 0.25 -15.84375 C 0.25 -16.550781 0.238281 -17.234375 0.21875 -17.890625 C 0.195312 -18.546875 0.414062 -19.03125 0.875 -19.34375 Z M 0.875 -19.34375 "/></g></g></g><g fill="#001838" fill-opacity="1"><g transform="translate(215.604571, 187.432208)"><g><path d="M 18.359375 -18.828125 C 18.816406 -18.316406 18.960938 -17.769531 18.796875 -17.1875 C 18.722656 -16.925781 18.59375 -16.675781 18.40625 -16.4375 C 18.226562 -16.207031 18.039062 -15.984375 17.84375 -15.765625 C 17.726562 -15.640625 17.609375 -15.515625 17.484375 -15.390625 C 17.359375 -15.273438 17.238281 -15.15625 17.125 -15.03125 C 16.925781 -14.8125 16.660156 -14.738281 16.328125 -14.8125 C 16.003906 -14.882812 15.675781 -15.003906 15.34375 -15.171875 C 15.019531 -15.347656 14.734375 -15.472656 14.484375 -15.546875 C 13.953125 -15.742188 13.425781 -15.914062 12.90625 -16.0625 C 12.382812 -16.207031 11.84375 -16.316406 11.28125 -16.390625 C 11.15625 -16.410156 11.035156 -16.421875 10.921875 -16.421875 C 10.816406 -16.421875 10.703125 -16.421875 10.578125 -16.421875 C 9.390625 -16.421875 8.328125 -16.0625 7.390625 -15.34375 C 6.453125 -14.625 5.8125 -13.671875 5.46875 -12.484375 C 5.101562 -11.191406 5.140625 -9.925781 5.578125 -8.6875 C 6.015625 -7.445312 6.769531 -6.445312 7.84375 -5.6875 C 8.675781 -5.132812 9.75 -4.859375 11.0625 -4.859375 C 12.738281 -4.859375 14.085938 -5.257812 15.109375 -6.0625 C 15.597656 -6.445312 16.003906 -6.691406 16.328125 -6.796875 C 16.660156 -6.910156 17.054688 -6.6875 17.515625 -6.125 C 17.765625 -5.882812 18.003906 -5.625 18.234375 -5.34375 C 18.460938 -5.0625 18.6875 -4.773438 18.90625 -4.484375 C 19.195312 -4.097656 19.242188 -3.722656 19.046875 -3.359375 C 18.859375 -2.992188 18.53125 -2.648438 18.0625 -2.328125 C 17.601562 -2.015625 17.125 -1.742188 16.625 -1.515625 C 16.125 -1.285156 15.738281 -1.109375 15.46875 -0.984375 C 13.988281 -0.273438 12.429688 0.078125 10.796875 0.078125 C 9.191406 0.078125 7.660156 -0.265625 6.203125 -0.953125 C 4.742188 -1.648438 3.441406 -2.632812 2.296875 -3.90625 C 1.328125 -5.050781 0.679688 -6.226562 0.359375 -7.4375 C 0.046875 -8.65625 -0.0546875 -9.847656 0.046875 -11.015625 C 0.160156 -12.191406 0.363281 -13.253906 0.65625 -14.203125 C 1.289062 -16.148438 2.316406 -17.707031 3.734375 -18.875 C 5.160156 -20.039062 6.929688 -20.757812 9.046875 -21.03125 C 9.753906 -21.101562 10.410156 -21.140625 11.015625 -21.140625 C 11.359375 -21.140625 11.859375 -21.09375 12.515625 -21 C 13.171875 -20.914062 13.875 -20.78125 14.625 -20.59375 C 15.382812 -20.414062 16.101562 -20.179688 16.78125 -19.890625 C 17.46875 -19.597656 17.992188 -19.242188 18.359375 -18.828125 Z M 18.359375 -18.828125 "/></g></g></g><g fill="#001838" fill-opacity="1"><g transform="translate(237.063427, 187.432208)"><g><path d="M 20.46875 -9.265625 C 20.175781 -9.023438 19.742188 -8.863281 19.171875 -8.78125 C 18.609375 -8.695312 18.003906 -8.65625 17.359375 -8.65625 C 16.710938 -8.65625 16.109375 -8.664062 15.546875 -8.6875 C 14.984375 -8.707031 14.554688 -8.71875 14.265625 -8.71875 C 13.003906 -8.695312 11.753906 -8.679688 10.515625 -8.671875 C 9.273438 -8.660156 8.019531 -8.65625 6.75 -8.65625 C 6.363281 -8.65625 6.113281 -8.53125 6 -8.28125 C 5.894531 -8.039062 5.882812 -7.769531 5.96875 -7.46875 C 6.050781 -7.164062 6.164062 -6.898438 6.3125 -6.671875 C 6.820312 -6.015625 7.457031 -5.484375 8.21875 -5.078125 C 8.988281 -4.679688 9.789062 -4.4375 10.625 -4.34375 C 11.550781 -4.25 12.320312 -4.375 12.9375 -4.71875 C 13.5625 -5.070312 14.257812 -5.445312 15.03125 -5.84375 C 15.394531 -6.03125 15.644531 -6.148438 15.78125 -6.203125 C 15.914062 -6.253906 16.144531 -6.144531 16.46875 -5.875 C 16.800781 -5.601562 17.117188 -5.238281 17.421875 -4.78125 C 17.734375 -4.320312 18.035156 -3.921875 18.328125 -3.578125 C 18.640625 -3.160156 18.625 -2.769531 18.28125 -2.40625 C 17.945312 -2.039062 17.425781 -1.707031 16.71875 -1.40625 C 16.007812 -1.101562 15.238281 -0.84375 14.40625 -0.625 C 13.582031 -0.40625 12.835938 -0.234375 12.171875 -0.109375 C 11.503906 0.015625 11.046875 0.078125 10.796875 0.078125 C 9.171875 0.078125 7.671875 -0.242188 6.296875 -0.890625 C 4.921875 -1.535156 3.742188 -2.410156 2.765625 -3.515625 C 1.796875 -4.628906 1.066406 -5.878906 0.578125 -7.265625 C 0.0976562 -8.648438 -0.0859375 -10.101562 0.015625 -11.625 C 0.128906 -13.144531 0.597656 -14.625 1.421875 -16.0625 C 2.054688 -17.175781 2.898438 -18.125 3.953125 -18.90625 C 5.015625 -19.6875 6.179688 -20.265625 7.453125 -20.640625 C 8.734375 -21.015625 10.039062 -21.179688 11.375 -21.140625 C 12.71875 -21.109375 13.992188 -20.84375 15.203125 -20.34375 C 16.410156 -19.84375 17.460938 -19.097656 18.359375 -18.109375 C 18.773438 -17.640625 19.171875 -17.054688 19.546875 -16.359375 C 19.921875 -15.671875 20.242188 -14.925781 20.515625 -14.125 C 20.785156 -13.320312 20.945312 -12.535156 21 -11.765625 C 21.0625 -11.003906 20.984375 -10.304688 20.765625 -9.671875 C 20.722656 -9.523438 20.625 -9.390625 20.46875 -9.265625 Z M 14.96875 -13.0625 C 15.039062 -13.238281 15.0625 -13.421875 15.03125 -13.609375 C 15.007812 -13.898438 14.878906 -14.179688 14.640625 -14.453125 C 13.984375 -15.378906 13.128906 -16.0625 12.078125 -16.5 C 11.035156 -16.9375 9.96875 -16.910156 8.875 -16.421875 C 8.382812 -16.203125 7.925781 -15.921875 7.5 -15.578125 C 7.070312 -15.242188 6.675781 -14.878906 6.3125 -14.484375 C 6.21875 -14.390625 6.117188 -14.28125 6.015625 -14.15625 C 5.921875 -14.039062 5.847656 -13.910156 5.796875 -13.765625 C 5.703125 -13.472656 5.75 -13.203125 5.9375 -12.953125 C 6.132812 -12.710938 6.378906 -12.59375 6.671875 -12.59375 L 14.125 -12.59375 C 14.539062 -12.59375 14.820312 -12.75 14.96875 -13.0625 Z M 14.96875 -13.0625 "/></g></g></g><g fill="#001838" fill-opacity="1"><g transform="translate(260.3835, 187.432208)"><g><path d="M 18.359375 -18.828125 C 18.816406 -18.316406 18.960938 -17.769531 18.796875 -17.1875 C 18.722656 -16.925781 18.59375 -16.675781 18.40625 -16.4375 C 18.226562 -16.207031 18.039062 -15.984375 17.84375 -15.765625 C 17.726562 -15.640625 17.609375 -15.515625 17.484375 -15.390625 C 17.359375 -15.273438 17.238281 -15.15625 17.125 -15.03125 C 16.925781 -14.8125 16.660156 -14.738281 16.328125 -14.8125 C 16.003906 -14.882812 15.675781 -15.003906 15.34375 -15.171875 C 15.019531 -15.347656 14.734375 -15.472656 14.484375 -15.546875 C 13.953125 -15.742188 13.425781 -15.914062 12.90625 -16.0625 C 12.382812 -16.207031 11.84375 -16.316406 11.28125 -16.390625 C 11.15625 -16.410156 11.035156 -16.421875 10.921875 -16.421875 C 10.816406 -16.421875 10.703125 -16.421875 10.578125 -16.421875 C 9.390625 -16.421875 8.328125 -16.0625 7.390625 -15.34375 C 6.453125 -14.625 5.8125 -13.671875 5.46875 -12.484375 C 5.101562 -11.191406 5.140625 -9.925781 5.578125 -8.6875 C 6.015625 -7.445312 6.769531 -6.445312 7.84375 -5.6875 C 8.675781 -5.132812 9.75 -4.859375 11.0625 -4.859375 C 12.738281 -4.859375 14.085938 -5.257812 15.109375 -6.0625 C 15.597656 -6.445312 16.003906 -6.691406 16.328125 -6.796875 C 16.660156 -6.910156 17.054688 -6.6875 17.515625 -6.125 C 17.765625 -5.882812 18.003906 -5.625 18.234375 -5.34375 C 18.460938 -5.0625 18.6875 -4.773438 18.90625 -4.484375 C 19.195312 -4.097656 19.242188 -3.722656 19.046875 -3.359375 C 18.859375 -2.992188 18.53125 -2.648438 18.0625 -2.328125 C 17.601562 -2.015625 17.125 -1.742188 16.625 -1.515625 C 16.125 -1.285156 15.738281 -1.109375 15.46875 -0.984375 C 13.988281 -0.273438 12.429688 0.078125 10.796875 0.078125 C 9.191406 0.078125 7.660156 -0.265625 6.203125 -0.953125 C 4.742188 -1.648438 3.441406 -2.632812 2.296875 -3.90625 C 1.328125 -5.050781 0.679688 -6.226562 0.359375 -7.4375 C 0.046875 -8.65625 -0.0546875 -9.847656 0.046875 -11.015625 C 0.160156 -12.191406 0.363281 -13.253906 0.65625 -14.203125 C 1.289062 -16.148438 2.316406 -17.707031 3.734375 -18.875 C 5.160156 -20.039062 6.929688 -20.757812 9.046875 -21.03125 C 9.753906 -21.101562 10.410156 -21.140625 11.015625 -21.140625 C 11.359375 -21.140625 11.859375 -21.09375 12.515625 -21 C 13.171875 -20.914062 13.875 -20.78125 14.625 -20.59375 C 15.382812 -20.414062 16.101562 -20.179688 16.78125 -19.890625 C 17.46875 -19.597656 17.992188 -19.242188 18.359375 -18.828125 Z M 18.359375 -18.828125 "/></g></g></g><g fill="#001838" fill-opacity="1"><g transform="translate(281.842348, 187.432208)"><g><path d="M 5.4375 -0.515625 C 5.269531 -0.296875 5.023438 -0.171875 4.703125 -0.140625 C 4.390625 -0.117188 4.0625 -0.0820312 3.71875 -0.03125 C 3.40625 -0.0078125 3.035156 0.0078125 2.609375 0.03125 C 2.179688 0.0625 1.78125 0.0234375 1.40625 -0.078125 C 1.03125 -0.191406 0.742188 -0.421875 0.546875 -0.765625 C 0.253906 -1.296875 0.0820312 -1.882812 0.03125 -2.53125 C -0.0078125 -3.175781 0.00390625 -3.832031 0.078125 -4.5 C 0.148438 -5.175781 0.1875 -5.804688 0.1875 -6.390625 C 0.207031 -7.535156 0.222656 -8.671875 0.234375 -9.796875 C 0.242188 -10.929688 0.265625 -12.070312 0.296875 -13.21875 C 0.316406 -15.476562 0.320312 -17.742188 0.3125 -20.015625 C 0.300781 -22.296875 0.269531 -24.566406 0.21875 -26.828125 C 0.21875 -27.460938 0.347656 -27.914062 0.609375 -28.1875 C 0.878906 -28.46875 1.234375 -28.632812 1.671875 -28.6875 C 2.117188 -28.738281 2.597656 -28.726562 3.109375 -28.65625 C 3.617188 -28.582031 4.101562 -28.519531 4.5625 -28.46875 C 5.070312 -28.414062 5.40625 -28.140625 5.5625 -27.640625 C 5.71875 -27.148438 5.789062 -26.617188 5.78125 -26.046875 C 5.769531 -25.472656 5.753906 -25.015625 5.734375 -24.671875 C 5.679688 -23.554688 5.648438 -22.425781 5.640625 -21.28125 C 5.628906 -20.132812 5.625 -18.988281 5.625 -17.84375 C 5.625 -15.070312 5.625 -12.296875 5.625 -9.515625 C 5.625 -6.742188 5.625 -3.972656 5.625 -1.203125 C 5.625 -0.910156 5.5625 -0.679688 5.4375 -0.515625 Z M 5.4375 -0.515625 "/></g></g></g><g fill="#001838" fill-opacity="1"><g transform="translate(289.944147, 187.432208)"><g><path d="M 0.03125 -10.578125 C 0.0078125 -11.941406 0.273438 -13.300781 0.828125 -14.65625 C 1.390625 -16.007812 2.171875 -17.195312 3.171875 -18.21875 C 4.117188 -19.1875 5.203125 -19.925781 6.421875 -20.4375 C 7.640625 -20.945312 8.894531 -21.203125 10.1875 -21.203125 C 10.300781 -21.203125 10.425781 -21.203125 10.5625 -21.203125 C 10.695312 -21.203125 10.828125 -21.203125 10.953125 -21.203125 C 10.953125 -21.203125 10.957031 -21.203125 10.96875 -21.203125 C 10.976562 -21.203125 10.984375 -21.203125 10.984375 -21.203125 C 13.097656 -21.203125 14.960938 -20.765625 16.578125 -19.890625 C 18.203125 -19.015625 19.476562 -17.796875 20.40625 -16.234375 C 21.332031 -14.679688 21.796875 -12.882812 21.796875 -10.84375 C 21.796875 -7.65625 20.796875 -5.0625 18.796875 -3.0625 C 17.828125 -2.09375 16.664062 -1.34375 15.3125 -0.8125 C 13.957031 -0.289062 12.488281 -0.03125 10.90625 -0.03125 C 9.40625 -0.03125 8.003906 -0.300781 6.703125 -0.84375 C 5.398438 -1.394531 4.253906 -2.148438 3.265625 -3.109375 C 2.273438 -4.078125 1.492188 -5.195312 0.921875 -6.46875 C 0.359375 -7.75 0.0625 -9.117188 0.03125 -10.578125 Z M 10.796875 -16.859375 C 9.953125 -16.859375 9.128906 -16.582031 8.328125 -16.03125 C 7.523438 -15.488281 6.859375 -14.785156 6.328125 -13.921875 C 5.804688 -13.054688 5.535156 -12.148438 5.515625 -11.203125 C 5.484375 -10.160156 5.648438 -9.148438 6.015625 -8.171875 C 6.378906 -7.203125 6.9375 -6.390625 7.6875 -5.734375 C 8.445312 -5.078125 9.390625 -4.6875 10.515625 -4.5625 C 11.753906 -4.4375 12.796875 -4.628906 13.640625 -5.140625 C 14.492188 -5.648438 15.148438 -6.347656 15.609375 -7.234375 C 16.078125 -8.128906 16.335938 -9.101562 16.390625 -10.15625 C 16.441406 -11.21875 16.28125 -12.234375 15.90625 -13.203125 C 15.539062 -14.179688 14.957031 -15.003906 14.15625 -15.671875 C 13.351562 -16.347656 12.332031 -16.742188 11.09375 -16.859375 C 11.039062 -16.859375 10.988281 -16.859375 10.9375 -16.859375 C 10.894531 -16.859375 10.847656 -16.859375 10.796875 -16.859375 Z M 10.796875 -16.859375 "/></g></g></g><g fill="#001838" fill-opacity="1"><g transform="translate(314.030605, 187.432208)"><g><path d="M 18.65625 -0.1875 C 18.019531 -0.207031 17.378906 -0.210938 16.734375 -0.203125 C 16.085938 -0.191406 15.4375 -0.1875 14.78125 -0.1875 C 14.632812 -0.1875 14.519531 -0.441406 14.4375 -0.953125 C 14.351562 -1.460938 14.296875 -2.128906 14.265625 -2.953125 C 14.242188 -3.785156 14.234375 -4.679688 14.234375 -5.640625 C 14.234375 -6.597656 14.242188 -7.523438 14.265625 -8.421875 C 14.296875 -9.328125 14.316406 -10.109375 14.328125 -10.765625 C 14.335938 -11.421875 14.34375 -11.847656 14.34375 -12.046875 C 14.320312 -13.410156 14.109375 -14.441406 13.703125 -15.140625 C 13.304688 -15.847656 12.804688 -16.335938 12.203125 -16.609375 C 11.609375 -16.878906 11.019531 -17.015625 10.4375 -17.015625 L 10.359375 -17.015625 C 8.972656 -17.015625 7.847656 -16.546875 6.984375 -15.609375 C 6.117188 -14.671875 5.664062 -13.445312 5.625 -11.9375 C 5.59375 -10.957031 5.578125 -9.984375 5.578125 -9.015625 C 5.578125 -8.046875 5.578125 -7.070312 5.578125 -6.09375 C 5.609375 -5.34375 5.675781 -4.507812 5.78125 -3.59375 C 5.894531 -2.675781 5.878906 -1.84375 5.734375 -1.09375 C 5.628906 -0.53125 5.398438 -0.226562 5.046875 -0.1875 C 4.703125 -0.15625 4.3125 -0.128906 3.875 -0.109375 C 3.582031 -0.0859375 3.195312 -0.0546875 2.71875 -0.015625 C 2.238281 0.015625 1.773438 -0.00390625 1.328125 -0.078125 C 0.878906 -0.148438 0.546875 -0.332031 0.328125 -0.625 C 0.0546875 -1.007812 -0.0390625 -1.472656 0.03125 -2.015625 C 0.101562 -2.566406 0.15625 -3.050781 0.1875 -3.46875 C 0.28125 -4.800781 0.351562 -6.164062 0.40625 -7.5625 C 0.476562 -10.1875 0.40625 -12.800781 0.1875 -15.40625 C 0.132812 -15.914062 0.09375 -16.507812 0.0625 -17.1875 C 0.0390625 -17.875 0.0976562 -18.523438 0.234375 -19.140625 C 0.367188 -19.765625 0.632812 -20.253906 1.03125 -20.609375 C 1.4375 -20.960938 2.039062 -21.066406 2.84375 -20.921875 C 3.5 -20.796875 4.144531 -20.640625 4.78125 -20.453125 C 5.414062 -20.273438 6.0625 -20.125 6.71875 -20 C 6.757812 -20 6.8125 -20 6.875 -20 C 6.9375 -20 6.984375 -20 7.015625 -20 C 7.472656 -20 7.929688 -20.085938 8.390625 -20.265625 C 8.859375 -20.453125 9.332031 -20.644531 9.8125 -20.84375 C 10.300781 -21.039062 10.789062 -21.148438 11.28125 -21.171875 C 12.6875 -21.296875 14.023438 -21.050781 15.296875 -20.4375 C 16.390625 -19.925781 17.234375 -19.253906 17.828125 -18.421875 C 18.421875 -17.597656 18.851562 -16.6875 19.125 -15.6875 C 19.394531 -14.695312 19.566406 -13.664062 19.640625 -12.59375 C 19.710938 -11.519531 19.769531 -10.460938 19.8125 -9.421875 C 19.8125 -9.203125 19.835938 -8.75 19.890625 -8.0625 C 19.941406 -7.382812 19.972656 -6.597656 19.984375 -5.703125 C 19.992188 -4.816406 19.972656 -3.953125 19.921875 -3.109375 C 19.878906 -2.273438 19.765625 -1.578125 19.578125 -1.015625 C 19.398438 -0.460938 19.128906 -0.1875 18.765625 -0.1875 C 18.734375 -0.1875 18.710938 -0.1875 18.703125 -0.1875 C 18.691406 -0.1875 18.675781 -0.1875 18.65625 -0.1875 Z M 18.65625 -0.1875 "/></g></g></g><g fill="#001838" fill-opacity="1"><g transform="translate(336.328817, 187.432208)"><g><path d="M 20.46875 -9.265625 C 20.175781 -9.023438 19.742188 -8.863281 19.171875 -8.78125 C 18.609375 -8.695312 18.003906 -8.65625 17.359375 -8.65625 C 16.710938 -8.65625 16.109375 -8.664062 15.546875 -8.6875 C 14.984375 -8.707031 14.554688 -8.71875 14.265625 -8.71875 C 13.003906 -8.695312 11.753906 -8.679688 10.515625 -8.671875 C 9.273438 -8.660156 8.019531 -8.65625 6.75 -8.65625 C 6.363281 -8.65625 6.113281 -8.53125 6 -8.28125 C 5.894531 -8.039062 5.882812 -7.769531 5.96875 -7.46875 C 6.050781 -7.164062 6.164062 -6.898438 6.3125 -6.671875 C 6.820312 -6.015625 7.457031 -5.484375 8.21875 -5.078125 C 8.988281 -4.679688 9.789062 -4.4375 10.625 -4.34375 C 11.550781 -4.25 12.320312 -4.375 12.9375 -4.71875 C 13.5625 -5.070312 14.257812 -5.445312 15.03125 -5.84375 C 15.394531 -6.03125 15.644531 -6.148438 15.78125 -6.203125 C 15.914062 -6.253906 16.144531 -6.144531 16.46875 -5.875 C 16.800781 -5.601562 17.117188 -5.238281 17.421875 -4.78125 C 17.734375 -4.320312 18.035156 -3.921875 18.328125 -3.578125 C 18.640625 -3.160156 18.625 -2.769531 18.28125 -2.40625 C 17.945312 -2.039062 17.425781 -1.707031 16.71875 -1.40625 C 16.007812 -1.101562 15.238281 -0.84375 14.40625 -0.625 C 13.582031 -0.40625 12.835938 -0.234375 12.171875 -0.109375 C 11.503906 0.015625 11.046875 0.078125 10.796875 0.078125 C 9.171875 0.078125 7.671875 -0.242188 6.296875 -0.890625 C 4.921875 -1.535156 3.742188 -2.410156 2.765625 -3.515625 C 1.796875 -4.628906 1.066406 -5.878906 0.578125 -7.265625 C 0.0976562 -8.648438 -0.0859375 -10.101562 0.015625 -11.625 C 0.128906 -13.144531 0.597656 -14.625 1.421875 -16.0625 C 2.054688 -17.175781 2.898438 -18.125 3.953125 -18.90625 C 5.015625 -19.6875 6.179688 -20.265625 7.453125 -20.640625 C 8.734375 -21.015625 10.039062 -21.179688 11.375 -21.140625 C 12.71875 -21.109375 13.992188 -20.84375 15.203125 -20.34375 C 16.410156 -19.84375 17.460938 -19.097656 18.359375 -18.109375 C 18.773438 -17.640625 19.171875 -17.054688 19.546875 -16.359375 C 19.921875 -15.671875 20.242188 -14.925781 20.515625 -14.125 C 20.785156 -13.320312 20.945312 -12.535156 21 -11.765625 C 21.0625 -11.003906 20.984375 -10.304688 20.765625 -9.671875 C 20.722656 -9.523438 20.625 -9.390625 20.46875 -9.265625 Z M 14.96875 -13.0625 C 15.039062 -13.238281 15.0625 -13.421875 15.03125 -13.609375 C 15.007812 -13.898438 14.878906 -14.179688 14.640625 -14.453125 C 13.984375 -15.378906 13.128906 -16.0625 12.078125 -16.5 C 11.035156 -16.9375 9.96875 -16.910156 8.875 -16.421875 C 8.382812 -16.203125 7.925781 -15.921875 7.5 -15.578125 C 7.070312 -15.242188 6.675781 -14.878906 6.3125 -14.484375 C 6.21875 -14.390625 6.117188 -14.28125 6.015625 -14.15625 C 5.921875 -14.039062 5.847656 -13.910156 5.796875 -13.765625 C 5.703125 -13.472656 5.75 -13.203125 5.9375 -12.953125 C 6.132812 -12.710938 6.378906 -12.59375 6.671875 -12.59375 L 14.125 -12.59375 C 14.539062 -12.59375 14.820312 -12.75 14.96875 -13.0625 Z M 14.96875 -13.0625 "/></g></g></g><g fill="#001838" fill-opacity="1"><g transform="translate(359.64889, 187.432208)"><g><path d="M 1.015625 -5.578125 C 1.429688 -5.992188 1.9375 -6.285156 2.53125 -6.453125 C 3.132812 -6.628906 3.726562 -6.617188 4.3125 -6.421875 C 5.132812 -6.179688 5.769531 -5.6875 6.21875 -4.9375 C 6.675781 -4.195312 6.804688 -3.40625 6.609375 -2.5625 C 6.503906 -2.019531 6.257812 -1.523438 5.875 -1.078125 C 5.488281 -0.628906 5.023438 -0.304688 4.484375 -0.109375 C 3.710938 0.160156 2.957031 0.140625 2.21875 -0.171875 C 1.488281 -0.492188 0.910156 -0.992188 0.484375 -1.671875 C 0.0664062 -2.359375 -0.0664062 -3.101562 0.078125 -3.90625 C 0.222656 -4.582031 0.535156 -5.140625 1.015625 -5.578125 Z M 1.015625 -5.578125 "/></g></g></g></svg>